<svg width="20" height="20" viewBox="0 0 20 20" fill="none" xmlns="http://www.w3.org/2000/svg">
<path d="M0.57223 8.31147L4.00657 6.7504C4.49765 6.52719 4.74319 6.41558 4.9284 6.22811C5.11361 6.04064 5.22223 5.79376 5.43947 5.30001L6.89614 1.98933L6.89614 1.98933C7.00281 1.74688 7.05615 1.62566 7.14713 1.62367C7.23811 1.62168 7.2967 1.74045 7.41389 1.97799L9.09413 5.38398C9.31754 5.83684 9.42924 6.06327 9.60692 6.23541C9.78459 6.40754 10.0144 6.51202 10.4742 6.72098L13.9732 8.31147C14.2198 8.42355 14.3431 8.47959 14.3431 8.57157C14.3431 8.66356 14.2198 8.7196 13.9732 8.83168L10.5208 10.4009L10.5208 10.4009C10.0385 10.6202 9.79732 10.7298 9.61415 10.913C9.43097 11.0962 9.32134 11.3373 9.10209 11.8197L7.53283 15.2721C7.42075 15.5186 7.36471 15.6419 7.27273 15.6419C7.18074 15.6419 7.1247 15.5186 7.01262 15.2721L5.44336 11.8197C5.22411 11.3373 5.11448 11.0962 4.93131 10.913C4.74813 10.7298 4.50696 10.6202 4.02461 10.4009L0.57223 8.83168C0.325659 8.7196 0.202373 8.66356 0.202373 8.57157C0.202373 8.47959 0.325659 8.42355 0.57223 8.31147Z" fill="#008CDE"/>
<path d="M16.3635 11.2988L15.6598 12.8293C15.4413 13.3044 15.332 13.5419 15.1512 13.7228C14.9703 13.9037 14.7327 14.0129 14.2576 14.2314L13.2939 14.6746C13.0495 14.787 12.9272 14.8432 12.9274 14.9349C12.9275 15.0266 13.0499 15.0824 13.2947 15.1941L14.2498 15.6298C14.7287 15.8483 14.9681 15.9575 15.1503 16.1394C15.3325 16.3213 15.4421 16.5606 15.6614 17.0391L16.1028 18.0024C16.2152 18.2478 16.2714 18.3705 16.3632 18.3703C16.4551 18.3702 16.5109 18.2473 16.6226 18.0016L17.0565 17.0469C17.2758 16.5646 17.3854 16.3234 17.5686 16.1402C17.7518 15.9571 17.9929 15.8474 18.4753 15.6282L19.4299 15.1943C19.6757 15.0826 19.7985 15.0267 19.7987 14.9349C19.7988 14.8431 19.6761 14.7868 19.4307 14.6744L17.4999 13.7897" fill="#008CDE"/>
</svg>
