<svg width="18" height="16" viewBox="0 0 18 16" fill="none" xmlns="http://www.w3.org/2000/svg">
<path d="M1.29974 6.95546L3.66474 5.88046L3.66475 5.88045C4.20548 5.63467 4.47585 5.51177 4.67978 5.30535C4.88372 5.09893 5.00332 4.82709 5.24253 4.28342L5.24253 4.28341L6.23775 2.0215C6.47267 1.48758 6.59013 1.22062 6.79049 1.21623C6.99085 1.21185 7.11989 1.47341 7.37796 1.99653L8.55173 4.37586L8.55173 4.37587C8.79772 4.87452 8.92072 5.12384 9.11636 5.31338C9.312 5.50293 9.5651 5.61797 10.0713 5.84806L12.5076 6.95546C13.0506 7.20228 13.3221 7.32569 13.3221 7.52827C13.3221 7.73085 13.0506 7.85426 12.5076 8.10108L10.1227 9.18511C9.59158 9.42653 9.32602 9.54724 9.12432 9.74894C8.92263 9.95063 8.80192 10.2162 8.5605 10.7473L8.56049 10.7473L7.47646 13.1322C7.22964 13.6752 7.10623 13.9467 6.90365 13.9467C6.70108 13.9467 6.57766 13.6752 6.33084 13.1322L5.24681 10.7473L5.24681 10.7473C5.00539 10.2162 4.88468 9.95063 4.68298 9.74894C4.48129 9.54724 4.21572 9.42653 3.6846 9.18511L1.29974 8.10108C0.756727 7.85426 0.485223 7.73085 0.485223 7.52827C0.485223 7.32569 0.756727 7.20228 1.29974 6.95546Z" fill="url(#paint0_linear_443_2418)"/>
<path d="M11.0006 12.0672L12.1618 11.5332C12.4412 11.4047 12.581 11.3405 12.6846 11.232C12.7883 11.1236 12.8462 10.9811 12.9619 10.6961L13.4374 9.52581C13.551 9.24629 13.6077 9.10654 13.7095 9.1029C13.8113 9.09926 13.8779 9.23461 14.0111 9.5053L14.634 10.7708C14.7563 11.0194 14.8175 11.1437 14.9148 11.2384C15.0122 11.3331 15.1381 11.3908 15.3901 11.5062L15.3901 11.5062L16.614 12.067C16.8842 12.1908 17.0193 12.2527 17.0191 12.3538C17.019 12.4549 16.8837 12.5164 16.6131 12.6394L15.4182 13.1826L15.4182 13.1826C15.1526 13.3033 15.0198 13.3636 14.919 13.4645C14.8181 13.5653 14.7578 13.6981 14.6371 13.9637L14.0939 15.1586C13.9709 15.4292 13.9094 15.5645 13.8083 15.5646C13.7072 15.5648 13.6453 15.4297 13.5215 15.1595L12.9716 13.9594C12.8509 13.6959 12.7905 13.5642 12.6902 13.464C12.5899 13.3639 12.4581 13.3037 12.1944 13.1835L11.0015 12.6392C10.732 12.5163 10.5972 12.4548 10.597 12.3538C10.5969 12.2528 10.7315 12.191 11.0006 12.0672Z" fill="url(#paint1_linear_443_2418)"/>
<defs>
<linearGradient id="paint0_linear_443_2418" x1="3.9852" y1="4.04792" x2="13.2852" y2="12.2308" gradientUnits="userSpaceOnUse">
<stop stop-color="#7B3AEC"/>
<stop offset="1" stop-color="#AA99F5"/>
</linearGradient>
<linearGradient id="paint1_linear_443_2418" x1="12.3494" y1="10.5324" x2="17.0628" y2="14.6152" gradientUnits="userSpaceOnUse">
<stop stop-color="#7B3AEC"/>
<stop offset="1" stop-color="#AA99F5"/>
</linearGradient>
</defs>
</svg>
