<svg width="12" height="12" viewBox="0 0 12 12" fill="none" xmlns="http://www.w3.org/2000/svg">
<path d="M4.8125 3.5C4.8125 3.32694 4.86382 3.15777 4.95997 3.01388C5.05611 2.86998 5.19277 2.75783 5.35265 2.69161C5.51254 2.62538 5.68847 2.60805 5.85821 2.64181C6.02794 2.67557 6.18385 2.75891 6.30622 2.88128C6.42859 3.00365 6.51193 3.15956 6.54569 3.3293C6.57945 3.49903 6.56212 3.67496 6.4959 3.83485C6.42967 3.99473 6.31752 4.13139 6.17363 4.22754C6.02973 4.32368 5.86056 4.375 5.6875 4.375C5.45544 4.375 5.23288 4.28281 5.06878 4.11872C4.90469 3.95462 4.8125 3.73206 4.8125 3.5ZM11.8125 5.90625C11.8125 7.0744 11.4661 8.21631 10.8171 9.18759C10.1681 10.1589 9.2457 10.9159 8.16648 11.3629C7.08725 11.8099 5.8997 11.9269 4.754 11.699C3.6083 11.4711 2.55591 10.9086 1.7299 10.0826C0.903899 9.2566 0.341384 8.2042 0.11349 7.0585C-0.114404 5.9128 0.0025591 4.72525 0.449589 3.64603C0.896619 2.5668 1.65364 1.64437 2.62492 0.995383C3.59619 0.346396 4.73811 0 5.90625 0C7.47215 0.001737 8.97342 0.624559 10.0807 1.73182C11.1879 2.83908 11.8108 4.34035 11.8125 5.90625ZM10.5 5.90625C10.5 4.99769 10.2306 4.10954 9.72581 3.3541C9.22105 2.59866 8.5036 2.00987 7.6642 1.66218C6.82481 1.31449 5.90116 1.22352 5.01006 1.40077C4.11896 1.57802 3.30043 2.01553 2.65798 2.65798C2.01553 3.30043 1.57802 4.11895 1.40077 5.01005C1.22352 5.90115 1.31449 6.8248 1.66218 7.6642C2.00987 8.5036 2.59866 9.22105 3.3541 9.72581C4.10954 10.2306 4.99769 10.5 5.90625 10.5C7.12419 10.4987 8.29187 10.0143 9.15308 9.15308C10.0143 8.29187 10.4987 7.12419 10.5 5.90625ZM6.5625 7.91219V6.125C6.5625 5.83492 6.44727 5.55672 6.24215 5.3516C6.03703 5.14648 5.75883 5.03125 5.46875 5.03125C5.31377 5.03102 5.16371 5.08564 5.04515 5.18545C4.92659 5.28526 4.84717 5.42381 4.82097 5.57655C4.79477 5.7293 4.82347 5.8864 4.902 6.02001C4.98053 6.15362 5.1038 6.25513 5.25 6.30656V8.09375C5.25 8.38383 5.36524 8.66203 5.57035 8.86715C5.77547 9.07227 6.05367 9.1875 6.34375 9.1875C6.49873 9.18773 6.64879 9.1331 6.76735 9.0333C6.88592 8.93349 6.96533 8.79494 6.99153 8.64219C7.01773 8.48944 6.98903 8.33235 6.9105 8.19874C6.83198 8.06513 6.7087 7.96362 6.5625 7.91219Z" fill="#9294A0"/>
</svg>
