<svg width="26" height="23" viewBox="0 0 26 23" fill="none" xmlns="http://www.w3.org/2000/svg">
<path d="M24.9674 18.1675L15.4025 1.55674C15.1255 1.08294 14.7292 0.689935 14.2531 0.41682C13.7771 0.143705 13.2378 0 12.6889 0C12.1401 0 11.6008 0.143705 11.1247 0.41682C10.6487 0.689935 10.2524 1.08294 9.97534 1.55674L0.410499 18.1675C0.141677 18.6273 0 19.1503 0 19.6829C0 20.2155 0.141677 20.7385 0.410499 21.1983C0.684471 21.6745 1.08019 22.0692 1.55706 22.3419C2.03392 22.6146 2.57476 22.7556 3.12409 22.7503H22.2538C22.8027 22.7552 23.3431 22.6141 23.8196 22.3413C24.296 22.0686 24.6914 21.6741 24.9652 21.1983C25.2343 20.7387 25.3764 20.2158 25.3768 19.6832C25.3772 19.1506 25.2359 18.6275 24.9674 18.1675ZM22.6924 19.8847C22.6479 19.9605 22.5838 20.0229 22.5067 20.0652C22.4297 20.1076 22.3427 20.1284 22.2549 20.1253H3.12409C3.03626 20.1284 2.94923 20.1076 2.87222 20.0652C2.79521 20.0229 2.73108 19.9605 2.68659 19.8847C2.64886 19.8234 2.62889 19.7527 2.62889 19.6807C2.62889 19.6087 2.64886 19.5381 2.68659 19.4767L12.2514 2.86596C12.2988 2.79306 12.3636 2.73314 12.44 2.69167C12.5164 2.65019 12.602 2.62847 12.6889 2.62847C12.7759 2.62847 12.8614 2.65019 12.9378 2.69167C13.0142 2.73314 13.0791 2.79306 13.1264 2.86596L22.6902 19.4767C22.7283 19.5379 22.7486 19.6084 22.749 19.6804C22.7494 19.7524 22.7298 19.8232 22.6924 19.8847ZM11.3764 12.6878V9.18783C11.3764 8.83974 11.5147 8.5059 11.7609 8.25976C12.007 8.01361 12.3408 7.87533 12.6889 7.87533C13.037 7.87533 13.3709 8.01361 13.617 8.25976C13.8632 8.5059 14.0014 8.83974 14.0014 9.18783V12.6878C14.0014 13.0359 13.8632 13.3698 13.617 13.6159C13.3709 13.8621 13.037 14.0003 12.6889 14.0003C12.3408 14.0003 12.007 13.8621 11.7609 13.6159C11.5147 13.3698 11.3764 13.0359 11.3764 12.6878ZM14.4389 17.0628C14.4389 17.409 14.3363 17.7473 14.144 18.0351C13.9517 18.3229 13.6784 18.5472 13.3586 18.6796C13.0389 18.8121 12.687 18.8467 12.3475 18.7792C12.0081 18.7117 11.6962 18.545 11.4515 18.3003C11.2068 18.0555 11.0401 17.7437 10.9726 17.4042C10.905 17.0648 10.9397 16.7129 11.0721 16.3931C11.2046 16.0734 11.4289 15.8001 11.7167 15.6078C12.0045 15.4155 12.3428 15.3128 12.6889 15.3128C13.1531 15.3128 13.5982 15.4972 13.9264 15.8254C14.2546 16.1536 14.4389 16.5987 14.4389 17.0628Z" fill="#B17E10"/>
</svg>
