<svg width="12" height="12" viewBox="0 0 12 12" fill="none" xmlns="http://www.w3.org/2000/svg">
<path d="M9.70929 1.66585C8.64266 0.599224 7.19601 -1.12387e-08 5.68757 0C4.17913 1.12387e-08 2.73248 0.599224 1.66585 1.66585C0.599224 2.73248 1.12387e-08 4.17913 0 5.68757C-1.12387e-08 7.19601 0.599224 8.64266 1.66585 9.70929C2.73248 10.7759 4.17913 11.3751 5.68757 11.3751C7.19601 11.3751 8.64266 10.7759 9.70929 9.70929C10.7759 8.64266 11.3751 7.19601 11.3751 5.68757C11.3751 4.17913 10.7759 2.73248 9.70929 1.66585ZM8.75007 9.39921C8.48041 9.62221 8.18696 9.81478 7.87507 9.97343V4.11858L8.75007 3.24358V9.39921ZM4.37507 7.61858L5.25007 6.74358V10.4776C4.95398 10.45 4.66107 10.3951 4.37507 10.3136V7.61858ZM3.50007 9.97343C3.18179 9.81136 2.88277 9.61397 2.60866 9.38499L3.50007 8.49358V9.97343ZM6.12507 5.86858L7.00007 4.99358V10.3158C6.71407 10.3973 6.42116 10.4522 6.12507 10.4798V5.86858ZM0.875069 5.68757C0.875315 4.7732 1.13604 3.87783 1.62673 3.10628C2.11742 2.33473 2.81775 1.71893 3.64574 1.33099C4.47373 0.943042 5.3951 0.799007 6.30198 0.915745C7.20887 1.03248 8.06373 1.40516 8.76648 1.99015L1.9896 8.76702C1.2668 7.90395 0.872071 6.81332 0.875069 5.68757ZM9.62507 8.45421V2.92093C10.1943 3.73118 10.4998 4.69732 10.4998 5.68757C10.4998 6.67782 10.1943 7.64396 9.62507 8.45421Z" fill="#7D3AEC"/>
</svg>
